<svg width="1956" height="256" viewBox="0 0 1956 256" fill="none" xmlns="http://www.w3.org/2000/svg">
<g clip-path="url(#clip0_7384_45824)">
<path d="M467.19 57.1931V198.797H434.505L432.207 176.723C423.321 191.341 406.405 202.525 383.474 202.525C341.341 202.525 317.262 170.415 317.262 126.278C317.262 82.1404 343.92 52.8906 383.767 52.8906C404.987 52.8906 424.764 62.0579 433.356 78.9747L435.361 57.1931H467.178H467.19ZM391.81 84.7195C367.437 84.7195 352.256 102.785 352.256 128.001C352.256 153.218 367.169 171.002 391.529 171.002C415.89 171.002 431.657 153.511 431.657 128.001C431.657 102.492 416.183 84.7195 391.81 84.7195Z" fill="black"/>
<path d="M489.143 198.81V57.1931H521.253L524.113 73.8165C531.276 62.0702 545.613 52.8906 565.965 52.8906C587.465 52.8906 602.365 63.5002 609.821 79.8303C616.984 63.488 633.607 52.8906 655.107 52.8906C689.503 52.8906 708.424 73.5232 708.424 106.208V198.797H673.735V115.387C673.735 95.0358 662.845 84.4261 646.221 84.4261C629.598 84.4261 616.409 95.3169 616.409 118.541V198.797H581.439V115.094C581.439 95.3169 570.829 84.7073 554.206 84.7073C537.583 84.7073 524.113 95.598 524.113 118.529V198.785H489.143V198.81Z" fill="black"/>
<path d="M728.702 57.1931H761.093L763.391 78.6935C771.996 62.3513 790.624 52.8906 812.125 52.8906C851.972 52.8906 878.337 81.8471 878.337 126.278C878.337 170.709 854.258 202.525 812.125 202.525C790.905 202.525 772.571 194.214 763.685 179.876V255.989H728.714V57.1931H728.702ZM803.801 171.002C828.455 171.002 843.073 153.23 843.073 128.001C843.073 102.773 828.455 84.7195 803.801 84.7195C779.147 84.7195 763.954 102.492 763.954 128.001C763.954 153.511 779.721 171.002 803.801 171.002Z" fill="black"/>
<path d="M892.895 198.808V0H927.584V198.796H892.895V198.808Z" fill="black"/>
<path d="M941.653 128.001C941.653 83.57 970.609 52.9023 1012.17 52.9023C1053.73 52.9023 1081.53 81.2843 1081.53 125.422V136.031L974.9 136.325C977.479 161.26 990.667 173.874 1013.88 173.874C1033.08 173.874 1045.7 166.418 1049.7 152.948H1082.1C1076.08 183.909 1050.28 202.537 1013.3 202.537C971.172 202.537 941.641 171.869 941.641 128.013L941.653 128.001ZM975.755 113.957H1046.84C1046.84 94.4608 1033.37 81.5655 1012.45 81.5655C991.523 81.5655 979.202 92.7496 975.755 113.957Z" fill="black"/>
<path d="M1096.21 198.81V57.1931H1128.32L1131.18 73.8165C1138.35 62.0702 1152.68 52.8906 1173.04 52.8906C1194.54 52.8906 1209.44 63.5002 1216.89 79.8303C1224.05 63.488 1240.68 52.8906 1262.18 52.8906C1296.57 52.8906 1315.5 73.5232 1315.5 106.208V198.797H1280.81V115.387C1280.81 95.0358 1269.92 84.4261 1253.29 84.4261C1236.67 84.4261 1223.48 95.3169 1223.48 118.541V198.797H1188.51V115.094C1188.51 95.3169 1177.9 84.7073 1161.28 84.7073C1144.65 84.7073 1131.18 95.598 1131.18 118.529V198.785H1096.21V198.81Z" fill="black"/>
<path d="M1478.69 57.1931V198.797H1446L1443.7 176.723C1434.82 191.341 1417.9 202.525 1394.97 202.525C1352.84 202.525 1328.76 170.415 1328.76 126.278C1328.76 82.1404 1355.42 52.8906 1395.26 52.8906C1416.48 52.8906 1436.26 62.0579 1444.85 78.9747L1446.86 57.1931H1478.67H1478.69ZM1403.29 84.7195C1378.92 84.7195 1363.74 102.785 1363.74 128.001C1363.74 153.218 1378.65 171.002 1403.01 171.002C1427.37 171.002 1443.14 153.511 1443.14 128.001C1443.14 102.492 1427.67 84.7195 1403.29 84.7195Z" fill="black"/>
<path d="M1589.49 89.0212H1576.59C1551.36 89.0212 1535.6 102.491 1535.6 130.005V198.797H1500.63V57.4857H1533.59L1535.6 78.1182C1541.61 64.0739 1555.09 54.6133 1574.01 54.6133C1578.89 54.6133 1583.76 55.1878 1589.49 56.6179V89.009V89.0212Z" fill="black"/>
<path d="M1599.33 198.808V0H1634.02V116.535L1689.06 57.1917H1732.91L1679.02 113.381L1731.76 198.808H1691.64L1654.66 139.184L1634.02 160.684V198.808H1599.33Z" fill="black"/>
<path d="M1721.94 128.001C1721.94 83.57 1750.89 52.9023 1792.45 52.9023C1834.01 52.9023 1861.82 81.2843 1861.82 125.422V136.031L1755.18 136.325C1757.76 161.26 1770.95 173.874 1794.16 173.874C1813.37 173.874 1825.98 166.418 1829.99 152.948H1862.38C1856.37 183.909 1830.56 202.537 1793.59 202.537C1751.46 202.537 1721.92 171.869 1721.92 128.013L1721.94 128.001ZM1756.05 113.957H1827.14C1827.14 94.4608 1813.67 81.5655 1792.75 81.5655C1771.82 81.5655 1759.5 92.7496 1756.05 113.957Z" fill="black"/>
<path d="M1955.69 196.792C1947.95 200.227 1938.77 201.95 1928.75 201.95C1901.81 201.95 1884.89 188.187 1884.89 154.366V86.4298H1863.11V57.1922H1884.89V13.0547H1919.58V57.1922H1951.97V86.4298H1919.58V148.34C1919.58 165.256 1927.04 170.989 1937.65 170.989C1941.66 170.989 1946.54 170.133 1951.69 168.41L1955.7 196.792H1955.69Z" fill="black"/>
<path d="M145.87 124.785V156.736C145.87 179.972 164.706 198.808 187.942 198.808H239.584C244.193 198.808 247.921 195.08 247.921 190.472V101.39C247.921 96.7823 244.193 93.0542 239.584 93.0542H188.871C181.195 93.0542 174.985 86.8327 174.985 79.1688V8.33613C174.973 3.74026 171.245 0 166.637 0H111.254C108.724 0 106.328 1.14897 104.739 3.12911L1.82124 131.936C0.6356 133.415 0 135.248 0 137.143V190.472C0 195.08 3.72804 198.808 8.33613 198.808H63.7189C66.249 198.808 68.6448 197.659 70.2338 195.679L131.031 119.591C135.945 113.43 145.87 116.914 145.87 124.798V124.785Z" fill="black"/>
</g>
<defs>
<clipPath id="clip0_7384_45824">
<rect width="1955.69" height="256" fill="white"/>
</clipPath>
</defs>
</svg>
