<svg width="1961" height="256" viewBox="0 0 1961 256" fill="none" xmlns="http://www.w3.org/2000/svg">
<g clip-path="url(#clip0_7384_45842)">
<path d="M437.951 57.8043L435.819 80.911L435.035 79.3673C426.924 63.4156 408.056 53.5039 385.795 53.5039C346.234 53.5039 319.66 82.8468 319.66 126.524C319.66 172.628 345.511 202.424 385.501 202.424C406.366 202.424 424.008 193.088 433.895 176.818L434.667 175.543L437.069 198.687H468.862V57.8043H437.938H437.951ZM393.55 171.831C369.341 171.831 353.695 154.728 353.695 128.239C353.695 101.751 369.831 84.366 393.832 84.366C417.833 84.366 434.251 101.996 434.251 128.239C434.251 154.483 417.895 171.831 393.538 171.831H393.55Z" fill="white"/>
<path d="M648.754 84.096C666.335 84.096 676.835 95.8821 676.835 115.62V198.699H710.589V106.431C710.589 73.2899 690.802 53.5156 657.673 53.5156C636.882 53.5156 620.085 63.5008 612.746 80.2122L612.293 81.2413L611.827 80.2244C603.974 62.9985 588.525 53.5156 568.334 53.5156C549.993 53.5156 534.862 61.0749 526.825 74.2456L526.127 75.385L523.1 57.8282H491.858V198.711H525.894V118.793C525.894 93.4318 541.735 84.4022 556.56 84.4022C573.957 84.4022 584.347 95.9679 584.347 115.35V198.711H618.382V118.793C618.382 97.0705 629.739 84.1082 648.754 84.1082V84.096Z" fill="white"/>
<path d="M814.985 202.424C854.987 202.424 880.826 172.628 880.826 126.524C880.826 80.421 854.975 53.5039 814.985 53.5039C793.116 53.5039 775.032 63.0725 766.603 79.0855L765.831 80.5435L763.405 57.8043H731.906V255.988H765.942V178.459L766.873 179.954C775.584 194.019 793.569 202.412 814.985 202.412V202.424ZM806.654 84.3783C830.864 84.3783 846.509 101.604 846.509 128.252C846.509 154.899 830.864 171.843 806.654 171.843C782.445 171.843 766.223 154.323 766.223 128.252C766.223 102.18 782.469 84.3783 806.654 84.3783Z" fill="white"/>
<path d="M930.164 0.503906H896.41V198.688H930.164V0.503906Z" fill="white"/>
<path d="M1015.42 53.505C974.123 53.505 945.271 84.2446 945.271 128.253C945.271 172.261 974.589 202.425 1016.58 202.425C1053.2 202.425 1078.68 184.243 1084.89 153.736H1053.42C1049.2 167.262 1036.34 174.699 1017.14 174.699C993.506 174.699 980.188 161.884 977.578 136.621L977.517 136.069H978.068L1084.41 135.775V125.643C1084.41 81.8065 1057.32 53.4805 1015.41 53.4805L1015.42 53.505ZM1050.68 114.678H978.362L978.46 114.09C981.952 92.5758 994.829 81.2061 1015.72 81.2061C1036.61 81.2061 1050.68 94.144 1050.68 114.163V114.666V114.678Z" fill="white"/>
<path d="M1257.03 84.096C1274.61 84.096 1285.11 95.8821 1285.11 115.62V198.699H1318.86V106.431C1318.86 73.2899 1299.08 53.5156 1265.95 53.5156C1245.16 53.5156 1228.36 63.5008 1221.02 80.2122L1220.57 81.2413L1220.1 80.2244C1212.25 62.9985 1196.8 53.5156 1176.61 53.5156C1158.27 53.5156 1143.14 61.0749 1135.1 74.2456L1134.4 75.385L1131.37 57.8282H1100.13V198.711H1134.17V118.793C1134.17 93.4318 1150.01 84.4022 1164.83 84.4022C1182.23 84.4022 1192.62 95.9679 1192.62 115.35V198.711H1226.66V118.793C1226.66 97.0705 1238.01 84.1082 1257.03 84.1082V84.096Z" fill="white"/>
<path d="M1451.45 57.8043L1449.32 80.911L1448.53 79.3673C1440.42 63.4156 1421.56 53.5039 1399.3 53.5039C1359.73 53.5039 1333.16 82.8468 1333.16 126.524C1333.16 172.628 1359.01 202.424 1399 202.424C1419.87 202.424 1437.51 193.088 1447.4 176.818L1448.17 175.543L1450.57 198.687H1482.36V57.8043H1451.44H1451.45ZM1407.05 171.831C1382.84 171.831 1367.2 154.728 1367.2 128.239C1367.2 101.751 1383.33 84.366 1407.33 84.366C1431.33 84.366 1447.75 101.996 1447.75 128.239C1447.75 154.483 1431.39 171.831 1407.04 171.831H1407.05Z" fill="white"/>
<path d="M1580.98 88.69H1593.4V57.1295C1588.11 55.8308 1583.33 55.2305 1578.39 55.2305C1560.55 55.2305 1546.7 63.7087 1540.36 78.4843L1539.59 80.2853L1537.43 58.1096H1505.36V198.698H1539.39V130.272C1539.39 103.466 1554.16 88.7022 1580.96 88.7022L1580.98 88.69Z" fill="white"/>
<path d="M1736.43 57.8053H1693.88L1638.01 118.047V0.503906H1604.27V198.688H1638.01V160.793L1659.28 138.642L1659.62 139.194L1696.52 198.688H1735.56L1682.97 113.538L1736.43 57.8053Z" fill="white"/>
<path d="M1797.27 53.505C1755.96 53.505 1727.12 84.2446 1727.12 128.253C1727.12 172.261 1756.43 202.425 1798.42 202.425C1835.04 202.425 1860.52 184.243 1866.74 153.736H1835.26C1831.05 167.262 1818.18 174.699 1798.98 174.699C1775.35 174.699 1762.03 161.884 1759.42 136.621L1759.36 136.069H1759.91L1866.26 135.775V125.643C1866.26 81.8065 1839.17 53.4805 1797.26 53.4805L1797.27 53.505ZM1832.53 114.678H1760.21L1760.31 114.09C1763.8 92.5758 1776.67 81.2061 1797.56 81.2061C1818.45 81.2061 1832.53 94.144 1832.53 114.163V114.666V114.678Z" fill="white"/>
<path d="M1933.83 201.851C1943.8 201.851 1952.69 200.172 1960.28 196.876L1956.39 169.408C1951.47 171.001 1946.76 171.834 1942.73 171.834C1930.4 171.834 1924.13 164.029 1924.13 148.641V86.0961H1956.59V57.8069H1924.13V13.5781H1890.38V57.8069H1868.55V86.0961H1890.38V154.669C1890.38 185.972 1905 201.851 1933.83 201.851Z" fill="white"/>
<path d="M190.563 199.189H243.614C246.946 199.189 249.654 196.481 249.654 193.149V101.628C249.654 98.2957 246.946 95.588 243.614 95.588H191.507C182.245 95.588 174.71 88.0532 174.71 78.7909V6.04011C174.71 2.70763 172.002 0 168.67 0H111.76C109.91 0 108.195 0.820866 107.043 2.26657L1.32319 134.598C0.465566 135.663 0 136.999 0 138.371V193.161C0 196.493 2.70763 199.201 6.04011 199.201H62.9372C64.7872 199.201 66.5024 198.38 67.6541 196.934L130.113 118.768C132.233 116.11 135.369 114.578 138.714 114.578C139.976 114.578 141.226 114.799 142.439 115.215C146.947 116.796 149.863 120.9 149.863 125.678V158.501C149.863 180.934 168.118 199.189 190.551 199.189H190.563Z" fill="white"/>
</g>
<defs>
<clipPath id="clip0_7384_45842">
<rect width="1960.28" height="256" fill="white"/>
</clipPath>
</defs>
</svg>
