<svg width="256" height="256" viewBox="0 0 256 256" fill="none" xmlns="http://www.w3.org/2000/svg">
<rect width="256" height="256" fill="#111111"/>
<path d="M162.456 174.71H190.578C192.342 174.71 193.777 173.275 193.777 171.51V122.998C193.777 121.233 192.342 119.798 190.578 119.798H162.96C158.05 119.798 154.056 115.803 154.056 110.894V72.3185C154.056 70.5543 152.621 69.1191 150.856 69.1191H120.692C119.713 69.1191 118.803 69.5573 118.192 70.3211L62.1409 140.469C61.6895 141.034 61.4414 141.743 61.4414 142.467V171.51C61.4414 173.275 62.8766 174.71 64.6408 174.71H94.8036C95.7812 174.71 96.6928 174.272 97.3035 173.507L130.415 132.069C131.541 130.659 133.203 129.85 134.975 129.85C135.642 129.85 136.306 129.965 136.95 130.19C139.34 131.027 140.884 133.205 140.884 135.737V153.138C140.884 165.032 150.561 174.709 162.456 174.709V174.71Z" fill="white"/>
</svg>
