<svg width="256" height="256" viewBox="0 0 256 256" fill="none" xmlns="http://www.w3.org/2000/svg">
<rect width="256" height="256" rx="24" fill="#111111"/>
<path d="M169.8 192H203.5C206 192 208 190 208 187.5V129.3C208 126.8 206 124.8 203.5 124.8H170.4C164.9 124.8 160.4 120.3 160.4 114.8V68.5C160.4 66 158.4 64 155.9 64H119.7C118.3 64 117 64.6 116.2 65.7L49 149.8C48.4 150.6 48 151.6 48 152.6V187.4C48 189.9 50 191.9 52.5 191.9H88.7C90.1 191.9 91.4 191.3 92.2 190.2L131.9 140.5C133.1 138.9 135 138.1 136.9 138.1C137.6 138.1 138.3 138.2 139 138.5C141.6 139.4 143.3 141.8 143.3 144.5V165.4C143.3 180 155.2 191.9 169.8 191.9V192Z" fill="white"/>
</svg>
