<svg width="320" height="256" viewBox="0 0 320 256" fill="none" xmlns="http://www.w3.org/2000/svg">
<path d="M243.601 256.001H311.001C316.001 256.001 320.001 252.001 320.001 247.001V130.6C320.001 125.6 316.001 121.6 311.001 121.6H244.801C233.801 121.6 224.801 112.6 224.801 101.6V9.00003C224.801 4.00001 220.801 0 215.801 0H143.4C140.6 0 138 1.2 136.4 3.40001L2.00001 171.601C0.800002 173.201 0 175.201 0 177.201V246.801C0 251.801 4.00001 255.801 9.00003 255.801H81.4003C84.2003 255.801 86.8003 254.601 88.4003 252.401L167.801 153C170.201 149.8 174.001 148.2 177.801 148.2C179.201 148.2 180.601 148.4 182.001 149C187.201 150.8 190.601 155.6 190.601 161V202.801C190.601 232.001 214.401 255.801 243.601 255.801V256.001Z" fill="white"/>
</svg>
